<svg xmlns="http://www.w3.org/2000/svg" x="0px" y="0px"
width="50" height="50"
viewBox="0 0 172 172"
style=" fill:#000000;"><g fill="none" fill-rule="nonzero" stroke="none" stroke-width="1" stroke-linecap="butt" stroke-linejoin="miter" stroke-miterlimit="10" stroke-dasharray="" stroke-dashoffset="0" font-family="none" font-weight="none" font-size="none" text-anchor="none" style="mix-blend-mode: normal"><path d="M0,172v-172h172v172z" fill="none"></path><g fill="#ffffff"><path d="M86,0c-34.15812,0 -61.92,27.76188 -61.92,61.92v23.005c-0.20156,0.67188 -0.20156,1.37063 0,2.0425v23.1125c0,34.15813 27.76188,61.92 61.92,61.92c34.15813,0 61.92,-27.76187 61.92,-61.92v-23.435c0.09406,-0.45687 0.09406,-0.94062 0,-1.3975v-23.3275c0,-34.15812 -27.76187,-61.92 -61.92,-61.92zM86,6.88c30.43594,0 55.04,24.60406 55.04,55.04v20.64h-110.08v-20.64c0,-30.43594 24.60406,-55.04 55.04,-55.04zM85.6775,17.0925c-0.14781,0.02688 -0.29562,0.06719 -0.43,0.1075c-0.1075,0.02688 -0.215,0.06719 -0.3225,0.1075c-0.1075,0.02688 -0.215,0.06719 -0.3225,0.1075c-0.22844,0.12094 -0.44344,0.26875 -0.645,0.43c-0.14781,0.09406 -0.29562,0.20156 -0.43,0.3225c-0.16125,0.16125 -0.30906,0.34938 -0.43,0.5375l-13.33,13.2225c-1.37062,1.37063 -1.37062,3.57438 0,4.945c1.37063,1.37063 3.57438,1.37063 4.945,0l7.8475,-7.8475v31.39l-7.8475,-7.8475c-0.83312,-0.86 -2.05594,-1.22281 -3.225,-0.9675c-1.29,0.22844 -2.32469,1.16906 -2.6875,2.41875c-0.36281,1.26313 0.01344,2.60688 0.9675,3.49375l13.76,13.76c0.645,0.67188 1.54531,1.04813 2.4725,1.04813c0.92719,0 1.8275,-0.37625 2.4725,-1.04813l13.76,-13.76c1.37063,-1.37062 1.37063,-3.57437 0,-4.945c-1.37062,-1.37062 -3.57437,-1.37062 -4.945,0l-7.8475,7.8475v-31.39l7.8475,7.8475c1.37063,1.37063 3.57438,1.37063 4.945,0c1.37063,-1.37062 1.37063,-3.57437 0,-4.945l-13.33,-13.2225c-0.12094,-0.18812 -0.26875,-0.37625 -0.43,-0.5375c-0.49719,-0.49719 -1.12875,-0.84656 -1.8275,-0.9675c-0.30906,-0.08062 -0.645,-0.12094 -0.9675,-0.1075zM30.96,89.44h110.08v20.64c0,30.43594 -24.60406,55.04 -55.04,55.04c-30.43594,0 -55.04,-24.60406 -55.04,-55.04z"></path></g></g></svg>